<svg width="48" height="45" viewBox="0 0 48 45" fill="none" xmlns="http://www.w3.org/2000/svg">
<path d="M4.16602 45.0003C3.23268 45.0003 2.41602 44.6503 1.71602 43.9503C1.01602 43.2503 0.666016 42.4337 0.666016 41.5003V13.5003C0.666016 12.567 1.01602 11.7503 1.71602 11.0503C2.41602 10.3503 3.23268 10.0003 4.16602 10.0003H14.666V4.16699C14.666 3.23366 15.016 2.41699 15.716 1.71699C16.416 1.01699 17.2327 0.666992 18.166 0.666992H29.8327C30.766 0.666992 31.5827 1.01699 32.2827 1.71699C32.9827 2.41699 33.3327 3.23366 33.3327 4.16699V10.0003H43.8327C44.766 10.0003 45.5827 10.3503 46.2827 11.0503C46.9827 11.7503 47.3327 12.567 47.3327 13.5003V41.5003C47.3327 42.4337 46.9827 43.2503 46.2827 43.9503C45.5827 44.6503 44.766 45.0003 43.8327 45.0003H4.16602ZM4.16602 41.5003H43.8327V13.5003H4.16602V41.5003ZM18.166 10.0003H29.8327V4.16699H18.166V10.0003Z" fill="#5BDDF7"/>
</svg>
