<svg width="56" height="56" viewBox="0 0 56 56" fill="none" xmlns="http://www.w3.org/2000/svg">
<path d="M27.99 53.55C27.4912 53.55 27.0766 53.3823 26.746 53.0469C26.4155 52.7115 26.2502 52.2958 26.2502 51.8V49.175C20.9224 48.6306 16.4891 46.5889 12.9502 43.05C9.41131 39.5111 7.36964 35.0778 6.82519 29.75H4.2002C3.70436 29.75 3.28874 29.5813 2.95332 29.244C2.6179 28.9066 2.4502 28.4885 2.4502 27.9898C2.4502 27.4911 2.6179 27.0764 2.95332 26.7458C3.28874 26.4153 3.70436 26.25 4.2002 26.25H6.82519C7.36964 20.9222 9.41131 16.4889 12.9502 12.95C16.4891 9.41112 20.9224 7.36946 26.2502 6.82501V4.20001C26.2502 3.70418 26.4189 3.28855 26.7562 2.95314C27.0936 2.61772 27.5117 2.45001 28.0104 2.45001C28.5092 2.45001 28.9238 2.61772 29.2544 2.95314C29.5849 3.28855 29.7502 3.70418 29.7502 4.20001V6.82501C35.078 7.36946 39.5113 9.41112 43.0502 12.95C46.5891 16.4889 48.6307 20.9222 49.1752 26.25H51.8002C52.296 26.25 52.7117 26.4187 53.0471 26.7561C53.3825 27.0935 53.5502 27.5115 53.5502 28.0102C53.5502 28.509 53.3825 28.9236 53.0471 29.2542C52.7117 29.5847 52.296 29.75 51.8002 29.75H49.1752C48.6307 35.0778 46.5891 39.5111 43.0502 43.05C39.5113 46.5889 35.078 48.6306 29.7502 49.175V51.8C29.7502 52.2958 29.5815 52.7115 29.2442 53.0469C28.9068 53.3823 28.4887 53.55 27.99 53.55ZM28.0002 45.7333C32.8613 45.7333 37.0321 43.9931 40.5127 40.5125C43.9932 37.032 45.7335 32.8611 45.7335 28C45.7335 23.1389 43.9932 18.9681 40.5127 15.4875C37.0321 12.007 32.8613 10.2667 28.0002 10.2667C23.1391 10.2667 18.9683 12.007 15.4877 15.4875C12.0071 18.9681 10.2669 23.1389 10.2669 28C10.2669 32.8611 12.0071 37.032 15.4877 40.5125C18.9683 43.9931 23.1391 45.7333 28.0002 45.7333ZM28.0002 36.75C25.5502 36.75 23.4794 35.9042 21.7877 34.2125C20.096 32.5208 19.2502 30.45 19.2502 28C19.2502 25.55 20.096 23.4792 21.7877 21.7875C23.4794 20.0958 25.5502 19.25 28.0002 19.25C30.4502 19.25 32.521 20.0958 34.2127 21.7875C35.9044 23.4792 36.7502 25.55 36.7502 28C36.7502 30.45 35.9044 32.5208 34.2127 34.2125C32.521 35.9042 30.4502 36.75 28.0002 36.75ZM28.0002 33.25C29.478 33.25 30.7224 32.7445 31.7335 31.7333C32.7446 30.7222 33.2502 29.4778 33.2502 28C33.2502 26.5222 32.7446 25.2778 31.7335 24.2667C30.7224 23.2556 29.478 22.75 28.0002 22.75C26.5224 22.75 25.278 23.2556 24.2669 24.2667C23.2557 25.2778 22.7502 26.5222 22.7502 28C22.7502 29.4778 23.2557 30.7222 24.2669 31.7333C25.278 32.7445 26.5224 33.25 28.0002 33.25Z" fill="#5BDDF7"/>
</svg>
