<svg width="32" height="32" viewBox="0 0 32 32" fill="none" xmlns="http://www.w3.org/2000/svg">
<circle cx="16" cy="16" r="16" fill="#FCFDFD"/>
<path d="M17.001 23.9381C20.9473 23.446 24.001 20.0796 24.001 16C24.001 11.5817 20.4193 8 16.001 8C11.5827 8 8.00098 11.5817 8.00098 16C8.00098 20.0796 11.0547 23.446 15.001 23.9381V18H13.001V16H15.001V14.3458C15.001 13.0086 15.1402 12.5236 15.4017 12.0347C15.6631 11.5458 16.0468 11.1622 16.5357 10.9007C16.9184 10.696 17.3931 10.5725 18.2227 10.5195C18.5519 10.4985 18.9781 10.5253 19.501 10.6V12.5H19.001C18.0837 12.5 17.7052 12.5433 17.4789 12.6643C17.3386 12.7394 17.2404 12.8376 17.1653 12.9779C17.0443 13.2042 17.001 13.4285 17.001 14.3458V16H19.501L19.001 18H17.001V23.9381ZM16.001 26C10.4781 26 6.00098 21.5228 6.00098 16C6.00098 10.4771 10.4781 6 16.001 6C21.5238 6 26.001 10.4771 26.001 16C26.001 21.5228 21.5238 26 16.001 26Z" fill="black"/>
</svg>
