    <svg width="32" height="32" viewBox="0 0 32 32" fill="none" xmlns="http://www.w3.org/2000/svg">
<circle cx="16" cy="16" r="16" fill="#FCFDFD"/>
<path d="M16.001 13C14.3436 13 13.001 14.3431 13.001 16C13.001 17.6573 14.3441 19 16.001 19C17.6583 19 19.001 17.6569 19.001 16C19.001 14.3427 17.6579 13 16.001 13ZM16.001 11C18.7614 11 21.001 13.2371 21.001 16C21.001 18.7605 18.7639 21 16.001 21C13.2405 21 11.001 18.7629 11.001 16C11.001 13.2395 13.2381 11 16.001 11ZM22.501 10.7491C22.501 11.4393 21.9402 11.9992 21.251 11.9992C20.5609 11.9992 20.001 11.4384 20.001 10.7491C20.001 10.0599 20.5617 9.5 21.251 9.5C21.9393 9.49913 22.501 10.0599 22.501 10.7491ZM16.001 8C13.5265 8 13.1232 8.00655 11.9723 8.0578C11.1881 8.09461 10.6625 8.20007 10.1742 8.38967C9.74016 8.55799 9.42709 8.75898 9.09352 9.09255C8.75867 9.4274 8.55804 9.73963 8.3904 10.1738C8.20036 10.6633 8.09493 11.1881 8.05878 11.9711C8.00703 13.0752 8.00098 13.4611 8.00098 16C8.00098 18.4745 8.00753 18.8778 8.05877 20.0286C8.0956 20.8124 8.2012 21.3388 8.39034 21.826C8.5591 22.2606 8.7605 22.5744 9.09246 22.9064C9.42863 23.2421 9.74179 23.4434 10.1719 23.6094C10.6662 23.8005 11.1915 23.9061 11.9721 23.9422C13.0762 23.9939 13.462 24 16.001 24C18.4755 24 18.8788 23.9934 20.0296 23.9422C20.8117 23.9055 21.3385 23.7996 21.827 23.6106C22.2604 23.4423 22.5752 23.2402 22.9074 22.9085C23.2436 22.5718 23.4445 22.2594 23.6107 21.8283C23.8013 21.3358 23.9071 20.8098 23.9432 20.0289C23.9949 18.9248 24.001 18.5389 24.001 16C24.001 13.5255 23.9944 13.1222 23.9432 11.9714C23.9064 11.1891 23.8005 10.6615 23.6113 10.1732C23.4434 9.74038 23.2417 9.42635 22.9084 9.09255C22.573 8.75715 22.2616 8.55693 21.8271 8.38942C21.338 8.19954 20.8124 8.09396 20.0298 8.05781C18.9258 8.00605 18.5399 8 16.001 8ZM16.001 6C18.7176 6 19.0568 6.01 20.1235 6.06C21.1876 6.10917 21.9135 6.2775 22.551 6.525C23.2101 6.77917 23.7668 7.1225 24.3226 7.67833C24.8776 8.23417 25.221 8.7925 25.476 9.45C25.7226 10.0867 25.891 10.8133 25.941 11.8775C25.9885 12.9442 26.001 13.2833 26.001 16C26.001 18.7167 25.991 19.0558 25.941 20.1225C25.8918 21.1867 25.7226 21.9125 25.476 22.55C25.2218 23.2092 24.8776 23.7658 24.3226 24.3217C23.7668 24.8767 23.2076 25.22 22.551 25.475C21.9135 25.7217 21.1876 25.89 20.1235 25.94C19.0568 25.9875 18.7176 26 16.001 26C13.2843 26 12.9451 25.99 11.8785 25.94C10.8143 25.8908 10.0893 25.7217 9.45098 25.475C8.79264 25.2208 8.23514 24.8767 7.67931 24.3217C7.12348 23.7658 6.78098 23.2067 6.52598 22.55C6.27848 21.9125 6.11098 21.1867 6.06098 20.1225C6.01348 19.0558 6.00098 18.7167 6.00098 16C6.00098 13.2833 6.01098 12.9442 6.06098 11.8775C6.11014 10.8125 6.27848 10.0875 6.52598 9.45C6.78014 8.79167 7.12348 8.23417 7.67931 7.67833C8.23514 7.1225 8.79348 6.78 9.45098 6.525C10.0885 6.2775 10.8135 6.11 11.8785 6.06C12.9451 6.0125 13.2843 6 16.001 6Z" fill="black"/>
</svg>
