<svg width="32" height="32" viewBox="0 0 32 32" fill="none" xmlns="http://www.w3.org/2000/svg">
<circle cx="16" cy="16" r="16" fill="#FCFDFD"/>
<path d="M16.001 13.55C16.9181 12.6133 18.1121 12 19.501 12C22.5385 12 25.001 14.4624 25.001 17.5V25H23.001V17.5C23.001 15.567 21.434 14 19.501 14C17.568 14 16.001 15.567 16.001 17.5V25H14.001V12.5H16.001V13.55ZM9.00098 10.5C8.17255 10.5 7.50098 9.82843 7.50098 9C7.50098 8.17157 8.17255 7.5 9.00098 7.5C9.8294 7.5 10.501 8.17157 10.501 9C10.501 9.82843 9.8294 10.5 9.00098 10.5ZM8.00098 12.5H10.001V25H8.00098V12.5Z" fill="black"/>
</svg>
