<svg width="56" height="56" viewBox="0 0 56 56" fill="none" xmlns="http://www.w3.org/2000/svg">
<path d="M18.6154 29.2367V26.6749H21.5031V30.4616C22.3604 30.9653 23.0759 31.4752 23.6173 31.9291C23.1468 31.7612 22.2895 31.4192 21.5031 31.1207V32.4203H24.8034V17.1304L21.6514 18.6475V24.3929H18.6154V19.5802L15.818 20.8736V28.646C16.7719 28.7393 17.7001 28.9445 18.6154 29.2367ZM15.8115 32.4203H18.6154V30.2378C17.7195 30.0388 16.7333 29.902 15.818 30.0015V32.4203H15.8115Z" fill="white"/>
<path d="M25.7637 32.4206H30.3144V16.5649L28.039 15.4395L25.7637 16.7887V32.4206Z" fill="white"/>
<path d="M34.5231 25.4375V20.7367L38.2294 22.1606V25.4375H34.5231ZM37.7588 27.4024H40.7368V20.9854L31.3389 16.9873V32.414H34.4908V27.5143L37.2625 32.414H40.9688L37.7588 27.4024Z" fill="white"/>
<path d="M34.1687 17.1989C34.4652 16.5212 34.6264 15.775 34.6264 14.9978C34.6264 11.8702 31.9965 9.33325 28.7543 9.33325C25.5121 9.33325 22.8887 11.8702 22.8887 14.9978C22.8887 15.632 22.9982 16.2476 23.1981 16.8196L28.0388 14.6123L34.1687 17.1989Z" fill="white"/>
<path d="M43.1737 31.1145C43.1544 31.1456 43.1286 31.1705 43.0835 31.1829C43.0383 31.2016 42.9739 31.2078 42.8901 31.2078H42.5033V30.8223H42.9417C43.0319 30.8223 43.1157 30.8409 43.1544 30.8782C43.1995 30.9093 43.2188 30.9529 43.2188 31.0088C43.2124 31.0461 43.1995 31.0772 43.1737 31.1145ZM43.38 31.6555C43.3284 31.5747 43.2704 31.5063 43.1995 31.4441C43.193 31.4379 43.193 31.4379 43.193 31.4316C43.2897 31.4006 43.3542 31.3632 43.4122 31.3073C43.496 31.2265 43.5347 31.1207 43.5347 31.0026C43.5347 30.9093 43.5089 30.8285 43.4638 30.7539C43.4122 30.6731 43.3477 30.6233 43.2575 30.586C43.1801 30.5549 43.077 30.5425 42.9288 30.5425H42.1875V32.1405H42.5033V31.4814H42.6838C42.7354 31.4814 42.7676 31.4814 42.7676 31.4814C42.8127 31.4876 42.8385 31.5 42.8643 31.5187C42.8836 31.5311 42.9094 31.556 42.9545 31.6057C42.9868 31.6555 43.0383 31.7239 43.1028 31.8047L43.322 32.1405H43.7151L43.38 31.6555Z" fill="white"/>
<path d="M42.8694 30.1449C42.1926 30.1449 41.6319 30.6796 41.6319 31.345C41.6319 32.0103 42.1862 32.5388 42.8694 32.5388C43.5462 32.5388 44.1135 32.0041 44.1135 31.345C44.1135 30.6859 43.5527 30.1449 42.8694 30.1449ZM42.8694 32.7502C42.0637 32.7502 41.4062 32.1222 41.4062 31.345C41.4062 30.5677 42.0637 29.9397 42.8694 29.9397C43.6752 29.9397 44.3326 30.5677 44.3326 31.345C44.3326 32.1222 43.6752 32.7502 42.8694 32.7502Z" fill="white"/>
<path fill-rule="evenodd" clip-rule="evenodd" d="M38.4165 38.1785V39.1671H42.0261C42.2517 39.1671 42.3806 39.0365 42.4515 38.8376C42.458 38.7878 42.4709 38.7132 42.4709 38.6635C42.4709 38.4645 42.3871 38.3153 42.213 38.2158C42.155 38.1847 42.0906 38.1722 42.0197 38.1722L38.4165 38.1785ZM38.4165 35.6726V36.6551H42.0261C42.2517 36.6551 42.3806 36.5307 42.4515 36.3317C42.458 36.282 42.4709 36.2074 42.4709 36.1514C42.4709 35.9089 42.3484 35.7535 42.1163 35.6664H38.4165V35.6726ZM31.0683 36.5369C30.9845 36.711 29.0121 40.734 28.9541 40.8273H26.8012C27.8906 38.6137 29.0444 36.2633 30.1466 34.0187H31.9643C32.6282 35.3493 34.259 38.6635 35.3225 40.8273H33.189C33.1439 40.7589 31.1779 36.7173 31.0683 36.5369ZM36.5601 40.8211V34.0125H42.516C43.2766 34.0125 43.7922 34.4539 44.1468 35.0757C44.2563 35.3244 44.3272 35.598 44.3272 35.8716V35.9711C44.3272 36.5307 44.0952 37.0033 43.6827 37.395C44.0307 37.7556 44.3272 38.1971 44.3272 38.707V39.0117C44.3272 39.7827 43.5151 40.8211 42.7094 40.8211H36.5601ZM22.1152 39.1671H25.699V40.8211H20.2588V34.0125C20.8776 34.0125 21.4964 34.0125 22.1152 34.0125V39.1671Z" fill="white"/>
<path fill-rule="evenodd" clip-rule="evenodd" d="M19.1628 34.0121L15.7014 37.3511C16.578 38.6631 17.6029 39.8259 18.6987 40.8207H15.6885C15.1149 40.2425 14.567 39.6207 14.0384 38.9554L12.1047 40.8207H9.33301L12.7815 37.4941C10.6093 34.5095 9.99692 31.6555 11.5246 30.0948C13.4261 28.1486 18.0412 28.8077 22.708 31.4317C18.9501 29.4295 15.2438 29.0751 14.0062 30.3435C12.7686 31.612 13.1167 33.5955 14.5541 35.7904L16.3911 34.0183L19.1628 34.0121Z" fill="white"/>
<path fill-rule="evenodd" clip-rule="evenodd" d="M16.3076 41.4304C23.9587 48.5935 34.5878 48.2888 30.6881 39.9319C33.1762 46.6473 25.4606 46.4545 19.3951 41.4304H16.3076Z" fill="white"/>
</svg>
