<svg width="42" height="48" viewBox="0 0 42 48" fill="none" xmlns="http://www.w3.org/2000/svg">
<path d="M3.5 47.3337C2.5375 47.3337 1.71354 46.991 1.02813 46.3055C0.342708 45.6201 0 44.7962 0 43.8337V35.0837C0 34.1212 0.342708 33.2972 1.02813 32.6118C1.71354 31.9264 2.5375 31.5837 3.5 31.5837H7V25.7503C7 24.7878 7.34271 23.9639 8.02812 23.2785C8.71354 22.593 9.5375 22.2503 10.5 22.2503H19.25V16.417H15.75C14.7875 16.417 13.9635 16.0743 13.2781 15.3889C12.5927 14.7035 12.25 13.8795 12.25 12.917V4.16699C12.25 3.20449 12.5927 2.38053 13.2781 1.69512C13.9635 1.0097 14.7875 0.666992 15.75 0.666992H26.25C27.2125 0.666992 28.0365 1.0097 28.7219 1.69512C29.4073 2.38053 29.75 3.20449 29.75 4.16699V12.917C29.75 13.8795 29.4073 14.7035 28.7219 15.3889C28.0365 16.0743 27.2125 16.417 26.25 16.417H22.75V22.2503H31.5C32.4625 22.2503 33.2865 22.593 33.9719 23.2785C34.6573 23.9639 35 24.7878 35 25.7503V31.5837H38.5C39.4625 31.5837 40.2865 31.9264 40.9719 32.6118C41.6573 33.2972 42 34.1212 42 35.0837V43.8337C42 44.7962 41.6573 45.6201 40.9719 46.3055C40.2865 46.991 39.4625 47.3337 38.5 47.3337H28C27.0375 47.3337 26.2135 46.991 25.5281 46.3055C24.8427 45.6201 24.5 44.7962 24.5 43.8337V35.0837C24.5 34.1212 24.8427 33.2972 25.5281 32.6118C26.2135 31.9264 27.0375 31.5837 28 31.5837H31.5V25.7503H10.5V31.5837H14C14.9625 31.5837 15.7865 31.9264 16.4719 32.6118C17.1573 33.2972 17.5 34.1212 17.5 35.0837V43.8337C17.5 44.7962 17.1573 45.6201 16.4719 46.3055C15.7865 46.991 14.9625 47.3337 14 47.3337H3.5ZM15.75 12.917H26.25V4.16699H15.75V12.917ZM3.5 43.8337H14V35.0837H3.5V43.8337ZM28 43.8337H38.5V35.0837H28V43.8337Z" fill="#FF8BFF"/>
</svg>
