<svg width="56" height="56" viewBox="0 0 56 56" fill="none" xmlns="http://www.w3.org/2000/svg">
<path d="M27.6364 56C24.5818 56 22 55.0333 19.8909 53.1C17.7818 51.1667 16.7273 48.8 16.7273 46C16.7273 43.5556 17.5636 41.4333 19.2364 39.6333C20.9091 37.8333 22.9818 36.6889 25.4545 36.2V30H12.3636C11.1636 30 10.1364 29.6083 9.28182 28.825C8.42727 28.0417 8 27.1 8 26V20H2.18182C1.56364 20 1.04545 19.8083 0.627273 19.425C0.209091 19.0417 0 18.5667 0 18V3.33333C0 2.76667 0.209091 2.29167 0.627273 1.90833C1.04545 1.525 1.56364 1.33333 2.18182 1.33333H18.1818C18.8 1.33333 19.3182 1.525 19.7364 1.90833C20.1545 2.29167 20.3636 2.76667 20.3636 3.33333V18C20.3636 18.5667 20.1545 19.0417 19.7364 19.425C19.3182 19.8083 18.8 20 18.1818 20H12.3636V26H42.9091V19.8C40.4364 19.3111 38.3636 18.1667 36.6909 16.3667C35.0182 14.5667 34.1818 12.4444 34.1818 10C34.1818 7.2 35.2364 4.83333 37.3455 2.9C39.4545 0.966667 42.0364 0 45.0909 0C48.1455 0 50.7273 0.966667 52.8364 2.9C54.9455 4.83333 56 7.2 56 10C56 12.4444 55.1636 14.5667 53.4909 16.3667C51.8182 18.1667 49.7455 19.3111 47.2727 19.8V26C47.2727 27.1 46.8455 28.0417 45.9909 28.825C45.1364 29.6083 44.1091 30 42.9091 30H29.8182V36.2C32.2909 36.6889 34.3636 37.8333 36.0364 39.6333C37.7091 41.4333 38.5455 43.5556 38.5455 46C38.5455 48.8 37.4909 51.1667 35.3818 53.1C33.2727 55.0333 30.6909 56 27.6364 56ZM45.0762 16C46.8799 16 48.4242 15.4156 49.7091 14.2468C50.9939 13.078 51.6364 11.6669 51.6364 10.0135C51.6364 8.36005 50.9988 6.94444 49.7238 5.76667C48.4487 4.58889 46.9093 4 45.1056 4C43.3019 4 41.7576 4.5844 40.4727 5.7532C39.1879 6.922 38.5455 8.33311 38.5455 9.98653C38.5455 11.64 39.183 13.0556 40.458 14.2333C41.7331 15.4111 43.2725 16 45.0762 16ZM4.36364 16H16V5.33333H4.36364V16ZM27.6217 52C29.4254 52 30.9697 51.4156 32.2545 50.2468C33.5394 49.078 34.1818 47.6669 34.1818 46.0135C34.1818 44.3601 33.5443 42.9444 32.2692 41.7667C30.9942 40.5889 29.4548 40 27.6511 40C25.8473 40 24.303 40.5844 23.0182 41.7532C21.7333 42.922 21.0909 44.3331 21.0909 45.9865C21.0909 47.64 21.7284 49.0556 23.0035 50.2333C24.2785 51.4111 25.8179 52 27.6217 52Z" fill="#FF8BFF"/>
</svg>
