<svg width="46" height="45" viewBox="0 0 46 45" fill="none" xmlns="http://www.w3.org/2000/svg">
<path d="M1.75 42C1.25417 42 0.838542 41.8313 0.503125 41.494C0.167708 41.1566 0 40.7385 0 40.2398C0 39.741 0.167708 39.3264 0.503125 38.9958C0.838542 38.6653 1.25417 38.5 1.75 38.5H5.36667V1.75C5.36667 1.25417 5.53438 0.838542 5.86979 0.503125C6.20521 0.167708 6.62083 0 7.11667 0H26.3667C26.8625 0 27.2781 0.167708 27.6135 0.503125C27.949 0.838542 28.1167 1.25417 28.1167 1.75V2.625H34.9417C35.4375 2.625 35.8531 2.79271 36.1885 3.12812C36.524 3.46354 36.6917 3.87917 36.6917 4.375V17.85H33.1917V6.125H28.1167V21.9917H24.6167V3.5H8.86667V38.5H20.8833V42H1.75ZM34.3365 44.3333C34.1177 44.3333 33.9306 44.2653 33.775 44.1292C33.6194 43.9931 33.524 43.8156 33.4886 43.5968L33.25 41.5333C32.4722 41.3 31.675 40.9597 30.8583 40.5125C30.0417 40.0653 29.3806 39.5694 28.875 39.025L27.125 39.8485C26.9306 39.9217 26.7264 39.9389 26.5125 39.9C26.2986 39.8611 26.126 39.7492 25.9948 39.5643L24.8135 37.669C24.6823 37.4841 24.6361 37.2944 24.675 37.1C24.7139 36.9056 24.8306 36.7306 25.025 36.575L26.6 35.2917C26.4056 34.3972 26.3083 33.5903 26.3083 32.8708C26.3083 32.1514 26.4056 31.3444 26.6 30.45L25.025 29.1667C24.8306 29.0111 24.7139 28.8361 24.675 28.6417C24.6361 28.4472 24.6823 28.2553 24.8135 28.066L25.9948 26.1256C26.126 25.9363 26.2986 25.8222 26.5125 25.7833C26.7264 25.7444 26.9306 25.7616 27.125 25.8348L28.875 26.6583C29.3806 26.1917 30.0417 25.725 30.8583 25.2583C31.675 24.7917 32.4722 24.4417 33.25 24.2083L33.4886 22.0946C33.524 21.8704 33.6194 21.6903 33.775 21.5542C33.9306 21.4181 34.1177 21.35 34.3365 21.35H36.3052C36.524 21.35 36.7111 21.4181 36.8667 21.5542C37.0222 21.6903 37.1177 21.8704 37.153 22.0946L37.3917 24.2083C38.1694 24.4417 38.9667 24.7917 39.7833 25.2583C40.6 25.725 41.2611 26.1917 41.7667 26.6583L43.5167 25.8348C43.7111 25.7616 43.9153 25.7444 44.1292 25.7833C44.3431 25.8222 44.5156 25.9363 44.6469 26.1256L45.8281 28.066C45.9594 28.2553 46.0056 28.4472 45.9667 28.6417C45.9278 28.8361 45.8111 29.0111 45.6167 29.1667L44.0417 30.45C44.2361 31.3444 44.3333 32.1514 44.3333 32.8708C44.3333 33.5903 44.2361 34.3972 44.0417 35.2917L45.6167 36.575C45.8111 36.7306 45.9278 36.9056 45.9667 37.1C46.0056 37.2944 45.9594 37.4841 45.8281 37.669L44.6469 39.5643C44.5156 39.7492 44.3431 39.8611 44.1292 39.9C43.9153 39.9389 43.7131 39.9194 43.5225 39.8417L41.7667 39.025C41.2611 39.5694 40.6 40.0653 39.7833 40.5125C38.9667 40.9597 38.1694 41.3 37.3917 41.5333L37.153 43.5968C37.1177 43.8156 37.0222 43.9931 36.8667 44.1292C36.7111 44.2653 36.524 44.3333 36.3052 44.3333H34.3365ZM35.2917 38.7917C37.0028 38.7917 38.4222 38.2278 39.55 37.1C40.6778 35.9722 41.2417 34.5528 41.2417 32.8417C41.2417 31.1306 40.6778 29.7111 39.55 28.5833C38.4222 27.4556 37.0028 26.8917 35.2917 26.8917C33.5806 26.8917 32.1611 27.4556 31.0333 28.5833C29.9056 29.7111 29.3417 31.1306 29.3417 32.8417C29.3417 34.5528 29.9056 35.9722 31.0333 37.1C32.1611 38.2278 33.5806 38.7917 35.2917 38.7917ZM19.3083 23.3333C18.6472 23.3333 18.0931 23.1097 17.6458 22.6625C17.1986 22.2153 16.975 21.6611 16.975 21C16.975 20.3389 17.1986 19.7847 17.6458 19.3375C18.0931 18.8903 18.6472 18.6667 19.3083 18.6667C19.9694 18.6667 20.5236 18.8903 20.9708 19.3375C21.4181 19.7847 21.6417 20.3389 21.6417 21C21.6417 21.6611 21.4181 22.2153 20.9708 22.6625C20.5236 23.1097 19.9694 23.3333 19.3083 23.3333Z" fill="#61FFBD"/>
</svg>
