<svg width="32" height="32" viewBox="0 0 32 32" fill="none" xmlns="http://www.w3.org/2000/svg">
<circle cx="16" cy="16" r="16" fill="#FCFDFD"/>
<path d="M20 12.2454V19.5C20 23.0899 17.0899 26 13.5 26C9.91015 26 7 23.0899 7 19.5C7 15.9101 9.91015 13 13.5 13C14.0163 13 14.5185 13.0602 15 13.1739V16.3368C14.5454 16.1208 14.0368 16 13.5 16C11.567 16 10 17.567 10 19.5C10 21.433 11.567 23 13.5 23C15.433 23 17 21.433 17 19.5V6H20C20 8.76142 22.2386 11 25 11V14C23.1081 14 21.3696 13.3433 20 12.2454Z" fill="black"/>
</svg>
