<svg width="32" height="32" viewBox="0 0 32 32" fill="none" xmlns="http://www.w3.org/2000/svg">
<circle cx="16" cy="16" r="16" fill="#FCFDFD"/>
<path d="M19.3499 9.5498C17.7681 9.5498 16.4786 10.8179 16.4504 12.3963L16.4223 13.9714C16.4164 14.3027 16.143 14.5665 15.8117 14.5606C15.7881 14.5602 15.7646 14.5584 15.7413 14.5552L14.1805 14.3423C12.127 14.0623 10.1588 13.1171 8.27072 11.5439C7.67275 14.8535 8.84 17.147 11.6534 18.9157L13.4004 20.014C13.681 20.1904 13.7654 20.5608 13.589 20.8413C13.5486 20.9056 13.4964 20.9616 13.435 21.0064L11.8434 22.1693C12.7897 22.2288 13.6894 22.1873 14.435 22.0385C19.1526 21.097 22.2897 17.5468 22.2897 11.6908C22.2897 11.2128 21.2774 9.5498 19.3499 9.5498ZM14.4507 12.3607C14.4983 9.69559 16.6735 7.5498 19.3499 7.5498C20.7132 7.5498 21.9465 8.10658 22.8348 9.00515C23.5462 8.9998 24.1514 9.17966 25.5035 8.35943C25.1693 9.9998 25.0034 10.7118 24.2897 11.6908C24.2897 19.3324 19.5926 23.0487 14.8264 23.9998C11.5587 24.6519 6.80646 23.5812 5.44531 22.1584C6.13874 22.1051 8.95928 21.8018 10.589 20.6089C9.20994 19.6984 3.72137 16.4679 7.32772 7.78617C9.02119 9.76283 10.738 11.1083 12.4781 11.8226C13.6355 12.2977 13.9198 12.2883 14.4507 12.3607Z" fill="black"/>
</svg>
