<svg width="46" height="48" viewBox="0 0 46 48" fill="none" xmlns="http://www.w3.org/2000/svg">
<path d="M26.8497 47.3337H19.1497C18.722 47.3337 18.3428 47.1975 18.0122 46.9253C17.6817 46.6531 17.4775 46.3031 17.3997 45.8753L16.4664 39.9837C15.7275 39.7114 14.9497 39.342 14.1331 38.8753C13.3164 38.4087 12.597 37.9225 11.9747 37.417L6.54974 39.9253C6.12196 40.1198 5.69418 40.1489 5.26641 40.0128C4.83863 39.8767 4.50807 39.5948 4.27474 39.167L0.42474 32.342C0.191406 31.9531 0.133073 31.5448 0.24974 31.117C0.366406 30.6892 0.59974 30.3392 0.94974 30.067L5.96641 26.392C5.88863 26.042 5.84002 25.6434 5.82057 25.1962C5.80113 24.7489 5.79141 24.3503 5.79141 24.0003C5.79141 23.6503 5.80113 23.2517 5.82057 22.8045C5.84002 22.3573 5.88863 21.9587 5.96641 21.6087L0.94974 17.9337C0.59974 17.6614 0.366406 17.3114 0.24974 16.8837C0.133073 16.4559 0.191406 16.0475 0.42474 15.6587L4.27474 8.83366C4.50807 8.40588 4.83863 8.12394 5.26641 7.98783C5.69418 7.85171 6.12196 7.88088 6.54974 8.07533L11.9747 10.5837C12.597 10.0781 13.3164 9.59199 14.1331 9.12533C14.9497 8.65866 15.7275 8.30866 16.4664 8.07533L17.3997 2.12533C17.4775 1.69755 17.6817 1.34755 18.0122 1.07533C18.3428 0.803103 18.722 0.666992 19.1497 0.666992H26.8497C27.2775 0.666992 27.6567 0.803103 27.9872 1.07533C28.3178 1.34755 28.522 1.69755 28.5997 2.12533L29.5331 8.01699C30.272 8.28921 31.0595 8.64894 31.8956 9.09616C32.7317 9.54338 33.4414 10.0392 34.0247 10.5837L39.4497 8.07533C39.8775 7.88088 40.3053 7.85171 40.7331 7.98783C41.1609 8.12394 41.4914 8.40588 41.7247 8.83366L45.5747 15.6003C45.8081 15.9892 45.8761 16.4073 45.7789 16.8545C45.6817 17.3017 45.4386 17.6614 45.0497 17.9337L40.0331 21.492C40.1109 21.8809 40.1595 22.2989 40.1789 22.7462C40.1984 23.1934 40.2081 23.6114 40.2081 24.0003C40.2081 24.3892 40.1984 24.7975 40.1789 25.2253C40.1595 25.6531 40.1109 26.0614 40.0331 26.4503L45.0497 30.067C45.3997 30.3392 45.6331 30.6892 45.7497 31.117C45.8664 31.5448 45.8081 31.9531 45.5747 32.342L41.7247 39.167C41.4914 39.5948 41.1609 39.8767 40.7331 40.0128C40.3053 40.1489 39.8775 40.1198 39.4497 39.9253L34.0247 37.417C33.4025 37.9225 32.6928 38.4184 31.8956 38.9045C31.0984 39.3906 30.3109 39.7503 29.5331 39.9837L28.5997 45.8753C28.522 46.3031 28.3178 46.6531 27.9872 46.9253C27.6567 47.1975 27.2775 47.3337 26.8497 47.3337ZM22.9997 31.5837C25.0997 31.5837 26.8886 30.8448 28.3664 29.367C29.8442 27.8892 30.5831 26.1003 30.5831 24.0003C30.5831 21.9003 29.8442 20.1114 28.3664 18.6337C26.8886 17.1559 25.0997 16.417 22.9997 16.417C20.8997 16.417 19.1109 17.1559 17.6331 18.6337C16.1553 20.1114 15.4164 21.9003 15.4164 24.0003C15.4164 26.1003 16.1553 27.8892 17.6331 29.367C19.1109 30.8448 20.8997 31.5837 22.9997 31.5837ZM22.9997 28.0837C21.872 28.0837 20.9095 27.685 20.1122 26.8878C19.315 26.0906 18.9164 25.1281 18.9164 24.0003C18.9164 22.8725 19.315 21.91 20.1122 21.1128C20.9095 20.3156 21.872 19.917 22.9997 19.917C24.1275 19.917 25.09 20.3156 25.8872 21.1128C26.6845 21.91 27.0831 22.8725 27.0831 24.0003C27.0831 25.1281 26.6845 26.0906 25.8872 26.8878C25.09 27.685 24.1275 28.0837 22.9997 28.0837ZM20.4331 43.8337H25.5664L26.3831 37.3003C27.6664 36.9892 28.8817 36.5031 30.0289 35.842C31.1761 35.1809 32.2164 34.3837 33.1497 33.4503L39.3331 36.1337L41.6664 31.9337L36.1831 27.9087C36.3386 27.2475 36.465 26.5962 36.5622 25.9545C36.6595 25.3128 36.7081 24.6614 36.7081 24.0003C36.7081 23.3392 36.6692 22.6878 36.5914 22.0462C36.5136 21.4045 36.3775 20.7531 36.1831 20.092L41.6664 16.067L39.3331 11.867L33.1497 14.5503C32.2553 13.5392 31.2442 12.6934 30.1164 12.0128C28.9886 11.3323 27.7442 10.8948 26.3831 10.7003L25.5664 4.16699H20.4331L19.6164 10.7003C18.2942 10.9725 17.0595 11.4392 15.9122 12.1003C14.765 12.7614 13.7442 13.5781 12.8497 14.5503L6.66641 11.867L4.33307 16.067L9.81641 20.092C9.66085 20.7531 9.53446 21.4045 9.43724 22.0462C9.34002 22.6878 9.29141 23.3392 9.29141 24.0003C9.29141 24.6614 9.34002 25.3128 9.43724 25.9545C9.53446 26.5962 9.66085 27.2475 9.81641 27.9087L4.33307 31.9337L6.66641 36.1337L12.8497 33.4503C13.7831 34.3837 14.8234 35.1809 15.9706 35.842C17.1178 36.5031 18.3331 36.9892 19.6164 37.3003L20.4331 43.8337Z" fill="#61FFBD"/>
</svg>
