<svg width="32" height="32" viewBox="0 0 32 32" fill="none" xmlns="http://www.w3.org/2000/svg">
<circle cx="16" cy="16" r="16" fill="#FCFDFD"/>
<path d="M23.6069 10.9948C23.5307 10.697 23.3152 10.4722 23.0684 10.4029C22.6299 10.2806 20.501 10 16.001 10C11.501 10 9.37252 10.2807 8.93225 10.4032C8.68776 10.4712 8.4723 10.6959 8.3951 10.9948C8.2863 11.4192 8.00098 13.196 8.00098 16C8.00098 18.804 8.2863 20.5808 8.3954 21.0064C8.47126 21.3031 8.68676 21.5278 8.93251 21.5968C9.37252 21.7193 11.501 22 16.001 22C20.501 22 22.6299 21.7194 23.0697 21.5968C23.3142 21.5288 23.5297 21.3041 23.6069 21.0052C23.7157 20.5808 24.001 18.8 24.001 16C24.001 13.2 23.7157 11.4192 23.6069 10.9948ZM25.5442 10.4982C26.001 12.28 26.001 16 26.001 16C26.001 16 26.001 19.72 25.5442 21.5018C25.2897 22.4873 24.547 23.2618 23.6056 23.5236C21.8971 24 16.001 24 16.001 24C16.001 24 10.1084 24 8.39637 23.5236C7.45146 23.2582 6.70879 22.4836 6.45774 21.5018C6.00098 19.72 6.00098 16 6.00098 16C6.00098 16 6.00098 12.28 6.45774 10.4982C6.71227 9.51273 7.45495 8.73818 8.39637 8.47636C10.1084 8 16.001 8 16.001 8C16.001 8 21.8971 8 23.6056 8.47636C24.5505 8.74182 25.2932 9.51636 25.5442 10.4982ZM14.001 19.5V12.5L20.001 16L14.001 19.5Z" fill="black"/>
</svg>
